<mxfile host="app.diagrams.net" agent="Mozilla/5.0 (Windows NT 10.0; Win64; x64) AppleWebKit/537.36 (KHTML, like Gecko) Chrome/130.0.0.0 Safari/537.36" version="24.8.4">
  <diagram name="Page-1" id="ELp3p4uoedm_Qb6-fsym">
    <mxGraphModel dx="913" dy="454" grid="1" gridSize="10" guides="1" tooltips="1" connect="1" arrows="1" fold="1" page="1" pageScale="1" pageWidth="850" pageHeight="1100" math="0" shadow="0">
      <root>
        <mxCell id="0" />
        <mxCell id="1" parent="0" />
        <mxCell id="JEJnbbT7LQvql4IuYgOn-1" value="Crime Case" style="rounded=0;whiteSpace=wrap;html=1;" parent="1" vertex="1">
          <mxGeometry x="260" y="270" width="70" height="20" as="geometry" />
        </mxCell>
        <mxCell id="JEJnbbT7LQvql4IuYgOn-2" value="&lt;u&gt;&amp;nbsp;numerical ID&lt;/u&gt;" style="ellipse;whiteSpace=wrap;html=1;" parent="1" vertex="1">
          <mxGeometry x="20" y="180" width="80" height="20" as="geometry" />
        </mxCell>
        <mxCell id="JEJnbbT7LQvql4IuYgOn-4" style="edgeStyle=orthogonalEdgeStyle;rounded=0;orthogonalLoop=1;jettySize=auto;html=1;exitX=0.5;exitY=1;exitDx=0;exitDy=0;" parent="1" source="JEJnbbT7LQvql4IuYgOn-2" target="JEJnbbT7LQvql4IuYgOn-2" edge="1">
          <mxGeometry relative="1" as="geometry" />
        </mxCell>
        <mxCell id="JEJnbbT7LQvql4IuYgOn-5" value="Type" style="ellipse;whiteSpace=wrap;html=1;shadow=1;gradientColor=none;" parent="1" vertex="1">
          <mxGeometry x="160" y="130" width="50" height="25" as="geometry" />
        </mxCell>
        <mxCell id="JEJnbbT7LQvql4IuYgOn-7" value="Date" style="ellipse;whiteSpace=wrap;html=1;" parent="1" vertex="1">
          <mxGeometry x="210" y="130" width="60" height="20" as="geometry" />
        </mxCell>
        <mxCell id="JEJnbbT7LQvql4IuYgOn-8" value="Time" style="ellipse;whiteSpace=wrap;html=1;" parent="1" vertex="1">
          <mxGeometry x="70" y="160" width="70" height="20" as="geometry" />
        </mxCell>
        <mxCell id="JEJnbbT7LQvql4IuYgOn-9" value="status" style="ellipse;whiteSpace=wrap;html=1;" parent="1" vertex="1">
          <mxGeometry x="240" y="150" width="60" height="20" as="geometry" />
        </mxCell>
        <mxCell id="JEJnbbT7LQvql4IuYgOn-12" value="place" style="ellipse;whiteSpace=wrap;html=1;" parent="1" vertex="1">
          <mxGeometry x="120" y="150" width="60" height="20" as="geometry" />
        </mxCell>
        <mxCell id="JEJnbbT7LQvql4IuYgOn-14" value="&lt;h5&gt;Supervision&lt;/h5&gt;" style="rhombus;whiteSpace=wrap;html=1;" parent="1" vertex="1">
          <mxGeometry x="260" y="340" width="70" height="40" as="geometry" />
        </mxCell>
        <mxCell id="JEJnbbT7LQvql4IuYgOn-15" value="" style="endArrow=none;html=1;rounded=0;" parent="1" edge="1">
          <mxGeometry width="50" height="50" relative="1" as="geometry">
            <mxPoint x="295" y="340" as="sourcePoint" />
            <mxPoint x="295" y="290" as="targetPoint" />
            <Array as="points">
              <mxPoint x="294.65999999999997" y="340" />
              <mxPoint x="295" y="290" />
            </Array>
          </mxGeometry>
        </mxCell>
        <mxCell id="JEJnbbT7LQvql4IuYgOn-30" value="1" style="edgeLabel;html=1;align=center;verticalAlign=middle;resizable=0;points=[];" parent="JEJnbbT7LQvql4IuYgOn-15" connectable="0" vertex="1">
          <mxGeometry x="0.0813" y="3" relative="1" as="geometry">
            <mxPoint x="-2" y="-13" as="offset" />
          </mxGeometry>
        </mxCell>
        <mxCell id="JEJnbbT7LQvql4IuYgOn-16" value="Lead Investigator" style="rounded=0;whiteSpace=wrap;html=1;" parent="1" vertex="1">
          <mxGeometry x="370" y="345" width="80" height="30" as="geometry" />
        </mxCell>
        <mxCell id="JEJnbbT7LQvql4IuYgOn-17" value="" style="endArrow=none;html=1;rounded=0;" parent="1" edge="1">
          <mxGeometry width="50" height="50" relative="1" as="geometry">
            <mxPoint x="330" y="360" as="sourcePoint" />
            <mxPoint x="370" y="359.65999999999997" as="targetPoint" />
            <Array as="points">
              <mxPoint x="350" y="359.65999999999997" />
            </Array>
          </mxGeometry>
        </mxCell>
        <mxCell id="JEJnbbT7LQvql4IuYgOn-29" value="1" style="edgeLabel;html=1;align=center;verticalAlign=middle;resizable=0;points=[];" parent="JEJnbbT7LQvql4IuYgOn-17" connectable="0" vertex="1">
          <mxGeometry x="-0.2864" relative="1" as="geometry">
            <mxPoint x="16" y="5" as="offset" />
          </mxGeometry>
        </mxCell>
        <mxCell id="JEJnbbT7LQvql4IuYgOn-23" value="Case Assign" style="rhombus;whiteSpace=wrap;html=1;" parent="1" vertex="1">
          <mxGeometry x="390" y="260" width="80" height="40" as="geometry" />
        </mxCell>
        <mxCell id="JEJnbbT7LQvql4IuYgOn-26" value="" style="endArrow=none;html=1;rounded=0;" parent="1" edge="1">
          <mxGeometry width="50" height="50" relative="1" as="geometry">
            <mxPoint x="330" y="279.65999999999997" as="sourcePoint" />
            <mxPoint x="390" y="279.65999999999997" as="targetPoint" />
          </mxGeometry>
        </mxCell>
        <mxCell id="JEJnbbT7LQvql4IuYgOn-33" value="N" style="edgeLabel;html=1;align=center;verticalAlign=middle;resizable=0;points=[];" parent="JEJnbbT7LQvql4IuYgOn-26" connectable="0" vertex="1">
          <mxGeometry x="-0.8" relative="1" as="geometry">
            <mxPoint x="4" as="offset" />
          </mxGeometry>
        </mxCell>
        <mxCell id="JEJnbbT7LQvql4IuYgOn-27" value="Investigator" style="rounded=0;whiteSpace=wrap;html=1;" parent="1" vertex="1">
          <mxGeometry x="530" y="267.5" width="90" height="25" as="geometry" />
        </mxCell>
        <mxCell id="JEJnbbT7LQvql4IuYgOn-28" value="" style="endArrow=none;html=1;rounded=0;" parent="1" edge="1">
          <mxGeometry width="50" height="50" relative="1" as="geometry">
            <mxPoint x="470" y="279.66" as="sourcePoint" />
            <mxPoint x="530" y="279.66" as="targetPoint" />
          </mxGeometry>
        </mxCell>
        <mxCell id="JEJnbbT7LQvql4IuYgOn-32" value="M" style="edgeLabel;html=1;align=center;verticalAlign=middle;resizable=0;points=[];" parent="JEJnbbT7LQvql4IuYgOn-28" connectable="0" vertex="1">
          <mxGeometry x="0.6023" relative="1" as="geometry">
            <mxPoint as="offset" />
          </mxGeometry>
        </mxCell>
        <mxCell id="JEJnbbT7LQvql4IuYgOn-34" value="" style="endArrow=none;html=1;rounded=0;" parent="1" edge="1">
          <mxGeometry width="50" height="50" relative="1" as="geometry">
            <mxPoint x="409.66" y="267.5" as="sourcePoint" />
            <mxPoint x="410" y="237.5" as="targetPoint" />
          </mxGeometry>
        </mxCell>
        <mxCell id="JEJnbbT7LQvql4IuYgOn-36" value="Start_date" style="ellipse;whiteSpace=wrap;html=1;" parent="1" vertex="1">
          <mxGeometry x="380" y="220" width="60" height="20" as="geometry" />
        </mxCell>
        <mxCell id="JEJnbbT7LQvql4IuYgOn-37" value="" style="endArrow=none;html=1;rounded=0;" parent="1" source="JEJnbbT7LQvql4IuYgOn-23" target="JEJnbbT7LQvql4IuYgOn-38" edge="1">
          <mxGeometry width="50" height="50" relative="1" as="geometry">
            <mxPoint x="450" y="255" as="sourcePoint" />
            <mxPoint x="460" y="250" as="targetPoint" />
          </mxGeometry>
        </mxCell>
        <mxCell id="JEJnbbT7LQvql4IuYgOn-38" value="end_date" style="ellipse;whiteSpace=wrap;html=1;" parent="1" vertex="1">
          <mxGeometry x="450" y="220" width="50" height="30" as="geometry" />
        </mxCell>
        <mxCell id="JEJnbbT7LQvql4IuYgOn-39" value="Criminal" style="rhombus;whiteSpace=wrap;html=1;horizontal=1;verticalAlign=middle;" parent="1" vertex="1">
          <mxGeometry x="130" y="260" width="80" height="40" as="geometry" />
        </mxCell>
        <mxCell id="JEJnbbT7LQvql4IuYgOn-40" value="" style="endArrow=none;html=1;rounded=0;" parent="1" edge="1">
          <mxGeometry width="50" height="50" relative="1" as="geometry">
            <mxPoint x="210" y="279.65999999999997" as="sourcePoint" />
            <mxPoint x="260" y="279.65999999999997" as="targetPoint" />
          </mxGeometry>
        </mxCell>
        <mxCell id="JEJnbbT7LQvql4IuYgOn-43" value="N" style="edgeLabel;html=1;align=center;verticalAlign=middle;resizable=0;points=[];" parent="JEJnbbT7LQvql4IuYgOn-40" connectable="0" vertex="1">
          <mxGeometry x="0.349" y="-1" relative="1" as="geometry">
            <mxPoint as="offset" />
          </mxGeometry>
        </mxCell>
        <mxCell id="JEJnbbT7LQvql4IuYgOn-41" value="Suspect" style="rounded=0;whiteSpace=wrap;html=1;" parent="1" vertex="1">
          <mxGeometry x="130" y="347.5" width="80" height="25" as="geometry" />
        </mxCell>
        <mxCell id="JEJnbbT7LQvql4IuYgOn-42" value="" style="endArrow=none;html=1;rounded=0;exitX=0.5;exitY=0;exitDx=0;exitDy=0;" parent="1" source="JEJnbbT7LQvql4IuYgOn-41" edge="1">
          <mxGeometry width="50" height="50" relative="1" as="geometry">
            <mxPoint x="169.66" y="340" as="sourcePoint" />
            <mxPoint x="169.66" y="300" as="targetPoint" />
          </mxGeometry>
        </mxCell>
        <mxCell id="JEJnbbT7LQvql4IuYgOn-44" value="M" style="edgeLabel;html=1;align=center;verticalAlign=middle;resizable=0;points=[];" parent="JEJnbbT7LQvql4IuYgOn-42" connectable="0" vertex="1">
          <mxGeometry x="-0.5106" y="-2" relative="1" as="geometry">
            <mxPoint x="-2" as="offset" />
          </mxGeometry>
        </mxCell>
        <mxCell id="JEJnbbT7LQvql4IuYgOn-45" value="&amp;nbsp;status&amp;nbsp;" style="ellipse;whiteSpace=wrap;html=1;" parent="1" vertex="1">
          <mxGeometry x="30" y="350" width="60" height="22.5" as="geometry" />
        </mxCell>
        <mxCell id="JEJnbbT7LQvql4IuYgOn-46" value="" style="endArrow=none;html=1;rounded=0;" parent="1" edge="1">
          <mxGeometry width="50" height="50" relative="1" as="geometry">
            <mxPoint x="90" y="360.90999999999997" as="sourcePoint" />
            <mxPoint x="130" y="360.90999999999997" as="targetPoint" />
            <Array as="points">
              <mxPoint x="120" y="360.90999999999997" />
            </Array>
          </mxGeometry>
        </mxCell>
        <mxCell id="JEJnbbT7LQvql4IuYgOn-48" value="Person" style="rounded=0;whiteSpace=wrap;html=1;" parent="1" vertex="1">
          <mxGeometry x="375" y="740" width="100" height="30" as="geometry" />
        </mxCell>
        <mxCell id="JEJnbbT7LQvql4IuYgOn-49" value="" style="endArrow=none;html=1;rounded=0;entryX=0.5;entryY=1;entryDx=0;entryDy=0;" parent="1" target="JEJnbbT7LQvql4IuYgOn-41" edge="1">
          <mxGeometry width="50" height="50" relative="1" as="geometry">
            <mxPoint x="410" y="700" as="sourcePoint" />
            <mxPoint x="170" y="380" as="targetPoint" />
          </mxGeometry>
        </mxCell>
        <mxCell id="JEJnbbT7LQvql4IuYgOn-50" value="" style="endArrow=none;html=1;rounded=0;entryX=0.5;entryY=1;entryDx=0;entryDy=0;" parent="1" target="JEJnbbT7LQvql4IuYgOn-16" edge="1">
          <mxGeometry width="50" height="50" relative="1" as="geometry">
            <mxPoint x="410" y="540" as="sourcePoint" />
            <mxPoint x="430" y="490" as="targetPoint" />
          </mxGeometry>
        </mxCell>
        <mxCell id="JEJnbbT7LQvql4IuYgOn-51" value="" style="endArrow=none;html=1;rounded=0;exitX=1;exitY=0;exitDx=0;exitDy=0;" parent="1" source="JEJnbbT7LQvql4IuYgOn-65" edge="1">
          <mxGeometry width="50" height="50" relative="1" as="geometry">
            <mxPoint x="427" y="540" as="sourcePoint" />
            <mxPoint x="580" y="292.5" as="targetPoint" />
          </mxGeometry>
        </mxCell>
        <mxCell id="JEJnbbT7LQvql4IuYgOn-52" value="d" style="ellipse;whiteSpace=wrap;html=1;aspect=fixed;" parent="1" vertex="1">
          <mxGeometry x="410" y="690" width="20" height="20" as="geometry" />
        </mxCell>
        <mxCell id="JEJnbbT7LQvql4IuYgOn-53" value="" style="endArrow=none;html=1;rounded=0;" parent="1" edge="1">
          <mxGeometry width="50" height="50" relative="1" as="geometry">
            <mxPoint x="419.6" y="740" as="sourcePoint" />
            <mxPoint x="419.6" y="710" as="targetPoint" />
            <Array as="points">
              <mxPoint x="419.6" y="730" />
            </Array>
          </mxGeometry>
        </mxCell>
        <mxCell id="JEJnbbT7LQvql4IuYgOn-54" value="N_ID" style="ellipse;whiteSpace=wrap;html=1;" parent="1" vertex="1">
          <mxGeometry x="290" y="825" width="55" height="30" as="geometry" />
        </mxCell>
        <mxCell id="JEJnbbT7LQvql4IuYgOn-55" value="First name" style="ellipse;whiteSpace=wrap;html=1;" parent="1" vertex="1">
          <mxGeometry x="360" y="825" width="50" height="35" as="geometry" />
        </mxCell>
        <mxCell id="JEJnbbT7LQvql4IuYgOn-56" value="Last name" style="ellipse;whiteSpace=wrap;html=1;" parent="1" vertex="1">
          <mxGeometry x="420" y="825" width="55" height="45" as="geometry" />
        </mxCell>
        <mxCell id="JEJnbbT7LQvql4IuYgOn-57" value="Phone no." style="ellipse;whiteSpace=wrap;html=1;" parent="1" vertex="1">
          <mxGeometry x="480" y="832.5" width="70" height="30" as="geometry" />
        </mxCell>
        <mxCell id="JEJnbbT7LQvql4IuYgOn-58" value="Address" style="ellipse;whiteSpace=wrap;html=1;" parent="1" vertex="1">
          <mxGeometry x="220" y="817.5" width="60" height="42.5" as="geometry" />
        </mxCell>
        <mxCell id="JEJnbbT7LQvql4IuYgOn-59" value="Street" style="ellipse;whiteSpace=wrap;html=1;" parent="1" vertex="1">
          <mxGeometry x="125" y="865" width="50" height="40" as="geometry" />
        </mxCell>
        <mxCell id="JEJnbbT7LQvql4IuYgOn-60" value="City" style="ellipse;whiteSpace=wrap;html=1;" parent="1" vertex="1">
          <mxGeometry x="175" y="905" width="60" height="30" as="geometry" />
        </mxCell>
        <mxCell id="JEJnbbT7LQvql4IuYgOn-61" value="Zip" style="ellipse;whiteSpace=wrap;html=1;" parent="1" vertex="1">
          <mxGeometry x="250" y="910" width="60" height="30" as="geometry" />
        </mxCell>
        <mxCell id="JEJnbbT7LQvql4IuYgOn-62" value="" style="endArrow=none;html=1;rounded=0;entryX=-0.024;entryY=0.671;entryDx=0;entryDy=0;entryPerimeter=0;" parent="1" target="JEJnbbT7LQvql4IuYgOn-58" edge="1">
          <mxGeometry width="50" height="50" relative="1" as="geometry">
            <mxPoint x="170" y="880" as="sourcePoint" />
            <mxPoint x="220" y="830" as="targetPoint" />
          </mxGeometry>
        </mxCell>
        <mxCell id="JEJnbbT7LQvql4IuYgOn-63" value="" style="endArrow=none;html=1;rounded=0;entryX=0;entryY=1;entryDx=0;entryDy=0;exitX=0.598;exitY=0.103;exitDx=0;exitDy=0;exitPerimeter=0;" parent="1" source="JEJnbbT7LQvql4IuYgOn-60" target="JEJnbbT7LQvql4IuYgOn-58" edge="1">
          <mxGeometry width="50" height="50" relative="1" as="geometry">
            <mxPoint x="210" y="900" as="sourcePoint" />
            <mxPoint x="240" y="860" as="targetPoint" />
          </mxGeometry>
        </mxCell>
        <mxCell id="JEJnbbT7LQvql4IuYgOn-64" value="" style="endArrow=none;html=1;rounded=0;entryX=0.5;entryY=1;entryDx=0;entryDy=0;" parent="1" target="JEJnbbT7LQvql4IuYgOn-58" edge="1">
          <mxGeometry width="50" height="50" relative="1" as="geometry">
            <mxPoint x="250" y="920" as="sourcePoint" />
            <mxPoint x="300" y="870" as="targetPoint" />
          </mxGeometry>
        </mxCell>
        <mxCell id="JEJnbbT7LQvql4IuYgOn-65" value="u" style="ellipse;whiteSpace=wrap;html=1;aspect=fixed;" parent="1" vertex="1">
          <mxGeometry x="405" y="540" width="20" height="20" as="geometry" />
        </mxCell>
        <mxCell id="JEJnbbT7LQvql4IuYgOn-67" value="Investigator" style="rounded=0;whiteSpace=wrap;html=1;" parent="1" vertex="1">
          <mxGeometry x="405" y="600" width="90" height="30" as="geometry" />
        </mxCell>
        <mxCell id="JEJnbbT7LQvql4IuYgOn-68" value="" style="endArrow=none;html=1;rounded=0;exitX=0.5;exitY=0;exitDx=0;exitDy=0;" parent="1" source="JEJnbbT7LQvql4IuYgOn-67" edge="1">
          <mxGeometry width="50" height="50" relative="1" as="geometry">
            <mxPoint x="445" y="590" as="sourcePoint" />
            <mxPoint x="415" y="560" as="targetPoint" />
          </mxGeometry>
        </mxCell>
        <mxCell id="JEJnbbT7LQvql4IuYgOn-69" value="" style="endArrow=none;html=1;rounded=0;exitX=1;exitY=0;exitDx=0;exitDy=0;" parent="1" source="JEJnbbT7LQvql4IuYgOn-52" edge="1">
          <mxGeometry width="50" height="50" relative="1" as="geometry">
            <mxPoint x="430" y="670" as="sourcePoint" />
            <mxPoint x="450" y="630" as="targetPoint" />
          </mxGeometry>
        </mxCell>
        <mxCell id="JEJnbbT7LQvql4IuYgOn-70" value="department" style="ellipse;whiteSpace=wrap;html=1;" parent="1" vertex="1">
          <mxGeometry x="580" y="580" width="80" height="30" as="geometry" />
        </mxCell>
        <mxCell id="JEJnbbT7LQvql4IuYgOn-71" value="counter" style="ellipse;whiteSpace=wrap;html=1;" parent="1" vertex="1">
          <mxGeometry x="560" y="630" width="90" height="30" as="geometry" />
        </mxCell>
        <mxCell id="JEJnbbT7LQvql4IuYgOn-72" value="" style="endArrow=none;html=1;rounded=0;exitX=1;exitY=0.5;exitDx=0;exitDy=0;entryX=0;entryY=0.5;entryDx=0;entryDy=0;" parent="1" source="JEJnbbT7LQvql4IuYgOn-67" target="JEJnbbT7LQvql4IuYgOn-70" edge="1">
          <mxGeometry width="50" height="50" relative="1" as="geometry">
            <mxPoint x="500" y="680" as="sourcePoint" />
            <mxPoint x="550" y="630" as="targetPoint" />
          </mxGeometry>
        </mxCell>
        <mxCell id="JEJnbbT7LQvql4IuYgOn-73" value="" style="endArrow=none;html=1;rounded=0;exitX=1;exitY=0.5;exitDx=0;exitDy=0;entryX=0;entryY=0.5;entryDx=0;entryDy=0;" parent="1" source="JEJnbbT7LQvql4IuYgOn-67" target="JEJnbbT7LQvql4IuYgOn-71" edge="1">
          <mxGeometry width="50" height="50" relative="1" as="geometry">
            <mxPoint x="490" y="700" as="sourcePoint" />
            <mxPoint x="540" y="650" as="targetPoint" />
          </mxGeometry>
        </mxCell>
      </root>
    </mxGraphModel>
  </diagram>
</mxfile>
